# xmcd
#
# Track frame offsets:
# 150
# 20057
# 40187
# 61787
# 82272
# 91827
# 111357
# 128385
# 145087
# 165637
# 179835
# 200137
# 214545
# 232217
# 254352
#
# Disc length: 3639 seconds
#
#
# Revision: 0
# Processed by: cddbd v1.5.2PL0 Copyright (c) Steve Scherf et al.
# Submitted via: FreeRIP 2.951 
#
DISCID=d90e350f
DTITLE=Various Artist - Slows D'Enfer
DYEAR=1999
DGENRE=Slow Jam
TTITLE0=Cyndi Lauper - The world is stone
TTITLE1=Paul Young - Everytime you go away
TTITLE2=Billy Paul - Me and Mrs Jones
TTITLE3=Joe Dassin - L'été indien
TTITLE4=Bill Withers - Ain'no sunshine
TTITLE5=Terence Trent d'Arby - Delicate
TTITLE6=Patricia Kaas - Je te dis vous
TTITLE7=Aretha Franklin - Unforgettable
TTITLE8=Santana - Samba pa ti
TTITLE9=Michel Fugain - Fais comme l'oiseau
TTITLE10=Bonnie Tyler - Total eclipse of the heart
TTITLE11=Gérard Lenorman - Michèle
TTITLE12=Bangles - Eternal Flame
TTITLE13=Toto - I won't hold you back
TTITLE14=Marvin Gaye - Sexual healing
EXTD=
EXTT0=
EXTT1=
EXTT2=
EXTT3=
EXTT4=
EXTT5=
EXTT6=
EXTT7=
EXTT8=
EXTT9=
EXTT10=
EXTT11=
EXTT12=
EXTT13=
EXTT14=
PLAYORDER=
